<svg xmlns="http://www.w3.org/2000/svg" viewBox="0 0 1200 400" width="1200" height="400">
  <defs>
    <linearGradient id="bg" x1="0" y1="0" x2="1" y2="1">
      <stop offset="0%" stop-color="#050508"/>
      <stop offset="100%" stop-color="#0A0F12"/>
    </linearGradient>
    <linearGradient id="glow" x1="0" y1="0" x2="0" y2="1">
      <stop offset="0%" stop-color="#3ECF8E" stop-opacity="0.15"/>
      <stop offset="100%" stop-color="#3ECF8E" stop-opacity="0"/>
    </linearGradient>
  </defs>

  <!-- Background -->
  <rect width="1200" height="400" fill="url(#bg)"/>

  <!-- Subtle grid -->
  <g stroke="#3ECF8E" stroke-opacity="0.04" stroke-width="1">
    <line x1="0" y1="80" x2="1200" y2="80"/>
    <line x1="0" y1="160" x2="1200" y2="160"/>
    <line x1="0" y1="240" x2="1200" y2="240"/>
    <line x1="0" y1="320" x2="1200" y2="320"/>
    <line x1="200" y1="0" x2="200" y2="400"/>
    <line x1="400" y1="0" x2="400" y2="400"/>
    <line x1="600" y1="0" x2="600" y2="400"/>
    <line x1="800" y1="0" x2="800" y2="400"/>
    <line x1="1000" y1="0" x2="1000" y2="400"/>
  </g>

  <!-- Glow behind logo -->
  <ellipse cx="160" cy="200" rx="120" ry="120" fill="url(#glow)"/>

  <!-- Logo mark -->
  <g transform="translate(160 200)">
    <ellipse rx="28" ry="72" fill="none" stroke="#3ECF8E" stroke-opacity="0.5" stroke-width="4.5"/>
    <ellipse rx="28" ry="72" fill="none" stroke="#3ECF8E" stroke-opacity="0.5" stroke-width="4.5" transform="rotate(60)"/>
    <ellipse rx="28" ry="72" fill="none" stroke="#3ECF8E" stroke-opacity="0.5" stroke-width="4.5" transform="rotate(120)"/>
    <circle r="18" fill="#3ECF8E"/>
  </g>

  <!-- Title -->
  <text x="320" y="155" font-family="system-ui, -apple-system, 'Segoe UI', sans-serif" font-size="52" font-weight="700" fill="#F0F0F0" letter-spacing="6">SYSTEM R</text>

  <!-- Subtitle -->
  <text x="320" y="200" font-family="system-ui, -apple-system, 'Segoe UI', sans-serif" font-size="20" fill="#888888" letter-spacing="1">The trading operating system for humans and agents</text>

  <!-- Metric pills -->
  <!-- 55 Tools -->
  <rect x="320" y="230" width="120" height="32" rx="16" fill="#3ECF8E" fill-opacity="0.1" stroke="#3ECF8E" stroke-opacity="0.3" stroke-width="1"/>
  <text x="380" y="251" text-anchor="middle" font-family="ui-monospace, SFMono-Regular, monospace" font-size="13" fill="#3ECF8E">55 MCP Tools</text>

  <!-- 25 Brokers -->
  <rect x="455" y="230" width="120" height="32" rx="16" fill="#3ECF8E" fill-opacity="0.1" stroke="#3ECF8E" stroke-opacity="0.3" stroke-width="1"/>
  <text x="515" y="251" text-anchor="middle" font-family="ui-monospace, SFMono-Regular, monospace" font-size="13" fill="#3ECF8E">25 Brokers</text>

  <!-- Every Asset -->
  <rect x="590" y="230" width="140" height="32" rx="16" fill="#3ECF8E" fill-opacity="0.1" stroke="#3ECF8E" stroke-opacity="0.3" stroke-width="1"/>
  <text x="660" y="251" text-anchor="middle" font-family="ui-monospace, SFMono-Regular, monospace" font-size="13" fill="#3ECF8E">Every Asset Class</text>

  <!-- One API -->
  <rect x="745" y="230" width="110" height="32" rx="16" fill="#3ECF8E" fill-opacity="0.1" stroke="#3ECF8E" stroke-opacity="0.3" stroke-width="1"/>
  <text x="800" y="251" text-anchor="middle" font-family="ui-monospace, SFMono-Regular, monospace" font-size="13" fill="#3ECF8E">One API Call</text>

  <!-- G-Formula -->
  <rect x="320" y="282" width="540" height="90" rx="8" fill="#111118" stroke="#222230" stroke-width="1"/>

  <!-- Formula left-aligned under SYSTEM R -->
  <text x="340" y="322" font-family="'Georgia', 'Times New Roman', serif" font-size="28" font-weight="400" fill="#F0F0F0" font-style="italic">G = E[R] - σ² / 2</text>

  <text x="340" y="352" font-family="ui-monospace, SFMono-Regular, 'SF Mono', monospace" font-size="12" fill="#5C6370">Maximize expected return. Minimize variance drag. Compound geometrically.</text>

  <!-- Accent line bottom -->
  <rect x="0" y="396" width="1200" height="4" fill="#3ECF8E" fill-opacity="0.6"/>
</svg>
